<svg width="648" height="301" viewBox="0 0 648 301" fill="none" xmlns="http://www.w3.org/2000/svg">
<path d="M305.5 210C284.459 198.391 260.551 192.268 236.25 192.268C211.949 192.268 188.041 198.391 167 210L167 18.7324C188.041 7.12299 211.949 1 236.25 1C260.551 1 284.459 7.12299 305.5 18.7324M305.5 210C326.541 198.391 350.449 192.268 374.75 192.268C399.051 192.268 422.959 198.391 444 210L444 18.7324C422.959 7.12299 399.051 1 374.75 1C350.449 1 326.541 7.12299 305.5 18.7324M305.5 210L305.5 18.7324" stroke="#8C7754" stroke-width="2" stroke-linecap="round" stroke-linejoin="round"/>
<path d="M220 179L354.046 139.742L399 22L264.773 61.2576L220.03 179L220 179Z" fill="#8C7754"/>
<g filter="url(#filter0_d_143_1503)">
<path d="M57.6705 291.01L40.67 218.456L23.8072 291.01H5L32.0494 179.135H49.4284L76.4777 291.01H57.6705ZM110.462 291.598H92.5663V231.725H70.7994V215.464H92.5663V178.53H110.462V291.598Z" fill="#543D20" stroke="#8C7754" stroke-miterlimit="10"/>
<path d="M170.617 228.611L188.908 290.993H170.875L160.826 254.543L147.043 290.993H127.6L164.182 195.137H129.802V179.118H183.247V195.137L170.634 228.611H170.617ZM210.4 218.335H219.536V178.53H236.537V291.598H219.536V233.628H210.4V291.598H193.795V178.547H210.4V218.353V218.335Z" fill="#543D20" stroke="#8C7754" stroke-miterlimit="10"/>
<path d="M351.308 274.628V291.114H284.339V179.135H304.299V274.628H351.308ZM382.591 216.554H395.72V232.331H382.591V291.616H364.3V178.547H382.591V216.554Z" fill="#543D20" stroke="#8C7754" stroke-miterlimit="10"/>
<path d="M449.955 182.716H471.722V198.251L452.794 211.762L472.496 225.514V244.526L439.906 220.861L406.68 244.405V225.393L444.535 198.268H406.68V182.733H428.963V174.481H449.955V182.733V182.716ZM412.1 249.18H491.562V178.547H509.715V291.615H412.1V249.18ZM430.253 277.032H491.562V263.763H430.253V277.032Z" fill="#543D20" stroke="#8C7754" stroke-miterlimit="10"/>
<path d="M530.311 242.001V179.135H548.206V197.057H573.449V179.135H591.086V242.001H530.294H530.311ZM553.764 276.427H611.717V178.547H629.871V204.721H643V220.982H629.871V291.616H535.731V252.052H553.764V276.427ZM573.466 225.636V212.852H548.224V225.636H573.466Z" fill="#543D20" stroke="#8C7754" stroke-miterlimit="10"/>
</g>
<defs>
<filter id="filter0_d_143_1503" x="0.364746" y="173.981" width="647.135" height="126.134" filterUnits="userSpaceOnUse" color-interpolation-filters="sRGB">
<feFlood flood-opacity="0" result="BackgroundImageFix"/>
<feColorMatrix in="SourceAlpha" type="matrix" values="0 0 0 0 0 0 0 0 0 0 0 0 0 0 0 0 0 0 127 0" result="hardAlpha"/>
<feOffset dy="4"/>
<feGaussianBlur stdDeviation="2"/>
<feComposite in2="hardAlpha" operator="out"/>
<feColorMatrix type="matrix" values="0 0 0 0 0 0 0 0 0 0 0 0 0 0 0 0 0 0 0.25 0"/>
<feBlend mode="normal" in2="BackgroundImageFix" result="effect1_dropShadow_143_1503"/>
<feBlend mode="normal" in="SourceGraphic" in2="effect1_dropShadow_143_1503" result="shape"/>
</filter>
</defs>
</svg>
