<svg width="40" height="39" viewBox="0 0 40 39" fill="none" xmlns="http://www.w3.org/2000/svg">
<rect width="40" height="38.8889" rx="19.4444" fill="#563C0A"/>
<path d="M11.0037 14.6964V23.2101C11.0037 24.8726 12.1849 25.5551 13.6199 24.7326L15.6762 23.5601C16.1224 23.3064 16.8662 23.2801 17.3299 23.5164L21.9237 25.8176C22.3874 26.0451 23.1312 26.0276 23.5774 25.7739L27.3662 23.6039C27.8474 23.3239 28.2499 22.6414 28.2499 22.0814V13.5676C28.2499 11.9051 27.0687 11.2226 25.6337 12.0451L23.5774 13.2176C23.1312 13.4714 22.3874 13.4976 21.9237 13.2614L17.3299 10.9689C16.8662 10.7414 16.1224 10.7589 15.6762 11.0126L11.8874 13.1826C11.3974 13.4626 11.0037 14.1451 11.0037 14.6964Z" stroke="white" stroke-width="1.5" stroke-linecap="round" stroke-linejoin="round"/>
<path d="M16.49 11.3887V22.7637" stroke="white" stroke-width="1.5" stroke-linecap="round" stroke-linejoin="round"/>
<path d="M22.7637 13.6812V25.3887" stroke="white" stroke-width="1.5" stroke-linecap="round" stroke-linejoin="round"/>
</svg>
