<svg width="44" height="44" viewBox="0 0 44 44" fill="none" xmlns="http://www.w3.org/2000/svg">
<circle cx="22" cy="22" r="21.9" fill="white" stroke="#DFDFDF" stroke-width="0.2"/>
<path d="M10.6509 22.9992V21.0018C10.6509 19.8214 11.6156 18.8454 12.8072 18.8454C14.8614 18.8454 15.7013 17.3927 14.6685 15.6109C14.0783 14.5895 14.4302 13.2616 15.4629 12.6714L17.4264 11.5479C18.3229 11.0145 19.4806 11.3322 20.014 12.2288L20.1388 12.4445C21.1602 14.2263 22.8399 14.2263 23.8727 12.4445L23.9975 12.2288C24.531 11.3322 25.6886 11.0145 26.5852 11.5479L28.5486 12.6714C29.5814 13.2616 29.9332 14.5895 29.343 15.6109C28.3102 17.3927 29.1501 18.8454 31.2043 18.8454C32.3846 18.8454 33.3606 19.8101 33.3606 21.0018V22.9992C33.3606 24.1795 32.396 25.1556 31.2043 25.1556C29.1501 25.1556 28.3102 26.6083 29.343 28.3901C29.9332 29.4229 29.5814 30.7394 28.5486 31.3295L26.5852 32.4531C25.6886 32.9865 24.531 32.6687 23.9975 31.7722L23.8727 31.5565C22.8513 29.7747 21.1716 29.7747 20.1388 31.5565L20.014 31.7722C19.4806 32.6687 18.3229 32.9865 17.4264 32.4531L15.4629 31.3295C14.4302 30.7394 14.0783 29.4115 14.6685 28.3901C15.7013 26.6083 14.8614 25.1556 12.8072 25.1556C11.6156 25.1556 10.6509 24.1795 10.6509 22.9992Z" fill="#563C0A" stroke="#563C0A" stroke-miterlimit="10" stroke-linecap="round" stroke-linejoin="round"/>
<path d="M22.0002 25.4052C23.8806 25.4052 25.405 23.8809 25.405 22.0005C25.405 20.1201 23.8806 18.5957 22.0002 18.5957C20.1198 18.5957 18.5955 20.1201 18.5955 22.0005C18.5955 23.8809 20.1198 25.4052 22.0002 25.4052Z" fill="white" stroke="#563C0A" stroke-miterlimit="10" stroke-linecap="round" stroke-linejoin="round"/>
</svg>
