<svg width="16" height="11" viewBox="0 0 16 11" fill="none" xmlns="http://www.w3.org/2000/svg">
<path fill-rule="evenodd" clip-rule="evenodd" d="M13.3219 8.6586C14.5647 7.78863 15.2355 6.66013 15.2355 5.49997C15.2355 4.33982 14.5647 3.21132 13.3219 2.34135C12.0815 1.47306 10.3271 0.91174 8.35311 0.91174C6.37909 0.91174 4.62476 1.47306 3.38436 2.34135C2.14154 3.21132 1.47076 4.33982 1.47076 5.49997C1.47076 6.66013 2.14154 7.78863 3.38436 8.6586C4.62476 9.52689 6.37909 10.0882 8.35311 10.0882C10.3271 10.0882 12.0815 9.52689 13.3219 8.6586ZM8.35311 10.8529C12.5765 10.8529 16.0002 8.45632 16.0002 5.49997C16.0002 2.54363 12.5765 0.147034 8.35311 0.147034C4.12976 0.147034 0.706055 2.54363 0.706055 5.49997C0.706055 8.45632 4.12976 10.8529 8.35311 10.8529Z" fill="#563C0A"/>
<path fill-rule="evenodd" clip-rule="evenodd" d="M8.35326 7.7941C9.62026 7.7941 10.6474 6.76699 10.6474 5.49999C10.6474 4.23298 9.62026 3.20587 8.35326 3.20587C7.08625 3.20587 6.05914 4.23298 6.05914 5.49999C6.05914 6.76699 7.08625 7.7941 8.35326 7.7941ZM8.35326 8.55881C10.0426 8.55881 11.4121 7.18933 11.4121 5.49999C11.4121 3.81064 10.0426 2.44116 8.35326 2.44116C6.66392 2.44116 5.29443 3.81064 5.29443 5.49999C5.29443 7.18933 6.66392 8.55881 8.35326 8.55881Z" fill="#563C0A"/>
</svg>
