<svg width="38" height="50" viewBox="0 0 38 50" fill="none" xmlns="http://www.w3.org/2000/svg">
<path fill-rule="evenodd" clip-rule="evenodd" d="M19 0C29.4934 0 38 8.50659 38 19C38 20.2809 37.8733 21.5321 37.6316 22.7419C35.9547 35.3791 19.0998 49.7619 19.0998 49.7619C19.0998 49.7619 4.75624 37.522 1.21651 25.7039C0.43022 23.6192 0 21.3598 0 19C0 8.50659 8.50659 0 19 0Z" fill="#563C0A"/>
<path d="M27.1551 25.7919V15.2971C27.1551 14.2537 26.3029 13.4799 25.2682 13.5668H25.2161C23.3901 13.7233 20.6164 14.6537 19.0687 15.6275L18.9209 15.7232C18.6688 15.8797 18.2514 15.8797 17.9993 15.7232L17.7819 15.5927C16.2342 14.6276 13.4692 13.7059 11.6432 13.5581C10.6085 13.4712 9.76514 14.2537 9.76514 15.2884V25.7919C9.76514 26.6266 10.4433 27.4092 11.2781 27.5135L11.5302 27.5483C13.417 27.8005 16.3298 28.7569 17.9993 29.6699L18.034 29.6873C18.2688 29.8177 18.6427 29.8177 18.8688 29.6873C20.5382 28.7656 23.4597 27.8005 25.3552 27.5483L25.6421 27.5135C26.4768 27.4092 27.1551 26.6266 27.1551 25.7919Z" stroke="white" stroke-linecap="round" stroke-linejoin="round"/>
<path d="M18.46 16.0101V29.0526" stroke="white" stroke-linecap="round" stroke-linejoin="round"/>
<path d="M14.7647 18.6185H12.8083" stroke="white" stroke-linecap="round" stroke-linejoin="round"/>
<path d="M15.4168 21.2271H12.8083" stroke="white" stroke-linecap="round" stroke-linejoin="round"/>
</svg>
