<svg width="26" height="26" viewBox="0 0 26 26" fill="none" xmlns="http://www.w3.org/2000/svg">
<path d="M9.20841 20.5832H8.66675C4.33341 20.5832 2.16675 19.4998 2.16675 14.0832V8.6665C2.16675 4.33317 4.33341 2.1665 8.66675 2.1665H17.3334C21.6667 2.1665 23.8334 4.33317 23.8334 8.6665V14.0832C23.8334 18.4165 21.6667 20.5832 17.3334 20.5832H16.7917C16.4559 20.5832 16.1309 20.7457 15.9251 21.0165L14.3001 23.1832C13.5851 24.1365 12.4151 24.1365 11.7001 23.1832L10.0751 21.0165C9.90175 20.7782 9.50091 20.5832 9.20841 20.5832Z" stroke="#563C0A" stroke-width="1.5" stroke-miterlimit="10" stroke-linecap="round" stroke-linejoin="round"/>
<path d="M7.58325 8.6665H18.4166" stroke="#563C0A" stroke-width="1.5" stroke-linecap="round" stroke-linejoin="round"/>
<path d="M7.58325 14.0835H14.0833" stroke="#563C0A" stroke-width="1.5" stroke-linecap="round" stroke-linejoin="round"/>
</svg>
