<svg width="19" height="19" viewBox="0 0 19 19" fill="none" xmlns="http://www.w3.org/2000/svg">
<path d="M16.625 4.73421C13.9888 4.47296 11.3367 4.33838 8.6925 4.33838C7.125 4.33838 5.5575 4.41755 3.99 4.57588L2.375 4.73421" stroke="#C4C4C4" stroke-width="1.5" stroke-linecap="round" stroke-linejoin="round"/>
<path d="M6.729 3.93475L6.90317 2.89766C7.02984 2.14558 7.12484 1.5835 8.46275 1.5835H10.5369C11.8748 1.5835 11.9778 2.17725 12.0965 2.90558L12.2707 3.93475" stroke="#C4C4C4" stroke-width="1.5" stroke-linecap="round" stroke-linejoin="round"/>
<path d="M14.923 7.23584L14.4084 15.2079C14.3213 16.4508 14.2501 17.4167 12.0413 17.4167H6.95881C4.75006 17.4167 4.67882 16.4508 4.59173 15.2079L4.07715 7.23584" stroke="#C4C4C4" stroke-width="1.5" stroke-linecap="round" stroke-linejoin="round"/>
<path d="M8.17773 13.0625H10.814" stroke="#C4C4C4" stroke-width="1.5" stroke-linecap="round" stroke-linejoin="round"/>
<path d="M7.521 9.896H11.4793" stroke="#C4C4C4" stroke-width="1.5" stroke-linecap="round" stroke-linejoin="round"/>
</svg>
