<svg width="54" height="54" viewBox="0 0 54 54" fill="none" xmlns="http://www.w3.org/2000/svg">
<path d="M20.25 22.5C22.7353 22.5 24.75 20.4853 24.75 18C24.75 15.5147 22.7353 13.5 20.25 13.5C17.7647 13.5 15.75 15.5147 15.75 18C15.75 20.4853 17.7647 22.5 20.25 22.5Z" stroke="#563C0A" stroke-width="1.5" stroke-linecap="round" stroke-linejoin="round"/>
<path d="M29.25 4.5H20.25C9 4.5 4.5 9 4.5 20.25V33.75C4.5 45 9 49.5 20.25 49.5H33.75C45 49.5 49.5 45 49.5 33.75V22.5" stroke="#563C0A" stroke-width="1.5" stroke-linecap="round" stroke-linejoin="round"/>
<path d="M43.065 5.82747L34.8975 13.995C34.5825 14.31 34.2675 14.9175 34.2225 15.3675L33.7725 18.495C33.615 19.62 34.4025 20.4075 35.5275 20.25L38.655 19.8C39.0825 19.7325 39.7125 19.44 40.0275 19.125L48.195 10.9575C49.6125 9.53997 50.265 7.91997 48.195 5.84997C46.1025 3.73497 44.4825 4.40997 43.065 5.82747Z" stroke="#563C0A" stroke-width="1.5" stroke-miterlimit="10" stroke-linecap="round" stroke-linejoin="round"/>
<path d="M41.895 6.99756C42.5925 9.47256 44.5275 11.4076 47.0025 12.1051" stroke="#563C0A" stroke-width="1.5" stroke-miterlimit="10" stroke-linecap="round" stroke-linejoin="round"/>
<path d="M6.00732 42.6373L17.0998 35.1898C18.8773 33.9973 21.4423 34.1323 23.0398 35.5048L23.7823 36.1573C25.5373 37.6648 28.3723 37.6648 30.1273 36.1573L39.4873 28.1248C41.2423 26.6173 44.0773 26.6173 45.8323 28.1248L49.4998 31.2748" stroke="#563C0A" stroke-width="1.5" stroke-linecap="round" stroke-linejoin="round"/>
</svg>
