<svg width="21" height="19" viewBox="0 0 21 19" fill="none" xmlns="http://www.w3.org/2000/svg">
<path d="M10.9743 0.766258L12.6695 5.64264C12.8303 6.10507 13.2662 6.41502 13.7558 6.41502H19.0901C19.9274 6.41502 20.2603 7.49787 19.5676 7.96821L15.3709 10.818C14.9404 11.1104 14.7599 11.6554 14.9307 12.147L16.5607 16.8356C16.8295 17.6087 15.9575 18.2777 15.2803 17.8179L10.8175 14.7874C10.4275 14.5226 9.91537 14.5226 9.52539 14.7874L5.06252 17.8179C4.38538 18.2777 3.51337 17.6087 3.78214 16.8356L5.41211 12.147C5.58301 11.6554 5.40247 11.1104 4.97192 10.818L0.775216 7.96821C0.0825601 7.49787 0.415466 6.41502 1.25272 6.41502H6.58708C7.07666 6.41502 7.51256 6.10507 7.67332 5.64264L9.36856 0.766258C9.63318 0.00507474 10.7097 0.00507426 10.9743 0.766258Z" fill="white" stroke="#F7C71B" stroke-width="0.3"/>
</svg>
