<svg width="21" height="17" viewBox="0 0 21 17" fill="none" xmlns="http://www.w3.org/2000/svg">
<path d="M10.5 15.9637C9.05582 15.1317 7.4176 14.6936 5.75 14.6936C4.0824 14.6936 2.44418 15.1317 1 15.9637V2.27011C2.44418 1.43804 4.0824 1 5.75 1C7.4176 1 9.05582 1.43804 10.5 2.27011M10.5 15.9637C11.9442 15.1317 13.5824 14.6936 15.25 14.6936C16.9176 14.6936 18.5558 15.1317 20 15.9637V2.27011C18.5558 1.43804 16.9176 1 15.25 1C13.5824 1 11.9442 1.43804 10.5 2.27011M10.5 15.9637V2.27011" stroke="#563C0A" stroke-linecap="round" stroke-linejoin="round"/>
<path d="M4.67749 13.8261L13.8572 11.0204L16.9356 2.60327L7.74201 5.40897L4.67749 13.8261Z" fill="#563C0A"/>
<ellipse cx="10.8064" cy="8.4818" rx="1.22581" ry="1.06884" fill="white"/>
</svg>
