<svg width="15" height="16" viewBox="0 0 15 16" fill="none" xmlns="http://www.w3.org/2000/svg">
<path d="M14.9998 7.78072C14.9998 7.22467 14.9497 6.6926 14.8567 6.18097H7.65967V9.11221L11.8046 9.1131C11.6365 10.0884 11.0954 10.9198 10.2665 11.4741V13.3758H12.7337C14.1744 12.0514 14.9998 10.0937 14.9998 7.78072Z" fill="#4285F4"/>
<path d="M10.2669 11.4747C9.58007 11.9348 8.69564 12.204 7.66097 12.204C5.66228 12.204 3.96675 10.8663 3.35954 9.06311H0.814453V11.0244C2.07537 13.5097 4.66696 15.2152 7.66097 15.2152C9.7303 15.2152 11.4688 14.5392 12.7342 13.3756L10.2669 11.4747Z" fill="#34A853"/>
<path d="M3.1201 7.60822C3.1201 7.10191 3.20505 6.61248 3.35976 6.15237V4.1911H0.814677C0.293319 5.21881 0 6.37887 0 7.60822C0 8.83756 0.294213 9.99762 0.814677 11.0253L3.35976 9.06407C3.20505 8.60395 3.1201 8.11452 3.1201 7.60822Z" fill="#FABB05"/>
<path d="M7.66097 3.01118C8.79043 3.01118 9.80184 3.39757 10.6004 4.15259L12.7869 1.98258C11.4589 0.754129 9.72762 0 7.66097 0C4.66785 0 2.07537 1.70545 0.814453 4.19078L3.35954 6.15205C3.96675 4.3489 5.66228 3.01118 7.66097 3.01118Z" fill="#E94235"/>
</svg>
