<svg width="16" height="13" viewBox="0 0 16 13" fill="none" xmlns="http://www.w3.org/2000/svg">
<path fill-rule="evenodd" clip-rule="evenodd" d="M13.3216 9.65863C14.5644 8.78866 15.2352 7.66016 15.2352 6.50001C15.2352 5.33985 14.5644 4.21135 13.3216 3.34138C12.0812 2.47309 10.3269 1.91177 8.35287 1.91177C6.37885 1.91177 4.62451 2.47309 3.38411 3.34138C2.1413 4.21135 1.47052 5.33985 1.47052 6.50001C1.47052 7.66016 2.1413 8.78866 3.38411 9.65863C4.62451 10.5269 6.37885 11.0882 8.35287 11.0882C10.3269 11.0882 12.0812 10.5269 13.3216 9.65863ZM8.35287 11.8529C12.5762 11.8529 15.9999 9.45635 15.9999 6.50001C15.9999 3.54366 12.5762 1.14706 8.35287 1.14706C4.12952 1.14706 0.705811 3.54366 0.705811 6.50001C0.705811 9.45635 4.12952 11.8529 8.35287 11.8529Z" fill="#D0D0D0"/>
<path fill-rule="evenodd" clip-rule="evenodd" d="M8.35277 8.7941C9.61977 8.7941 10.6469 7.76699 10.6469 6.49999C10.6469 5.23298 9.61977 4.20587 8.35277 4.20587C7.08576 4.20587 6.05865 5.23298 6.05865 6.49999C6.05865 7.76699 7.08576 8.7941 8.35277 8.7941ZM8.35277 9.55881C10.0421 9.55881 11.4116 8.18933 11.4116 6.49999C11.4116 4.81064 10.0421 3.44116 8.35277 3.44116C6.66343 3.44116 5.29395 4.81064 5.29395 6.49999C5.29395 8.18933 6.66343 9.55881 8.35277 9.55881Z" fill="#D0D0D0"/>
<path fill-rule="evenodd" clip-rule="evenodd" d="M14.7408 0.111989C14.8901 0.261307 14.8901 0.503399 14.7408 0.652717L2.5055 12.888C2.35618 13.0373 2.11409 13.0373 1.96477 12.888C1.81545 12.7387 1.81545 12.4966 1.96477 12.3473L14.2001 0.111989C14.3494 -0.0373295 14.5915 -0.0373295 14.7408 0.111989Z" fill="#D0D0D0"/>
</svg>
