<svg width="321" height="91" viewBox="0 0 321 91" fill="none" xmlns="http://www.w3.org/2000/svg">
<path d="M159.356 60.321C153.359 57.0259 146.545 55.288 139.619 55.288C132.694 55.288 125.88 57.0259 119.883 60.321V6.03304C125.88 2.7379 132.694 1 139.619 1C146.545 1 153.359 2.7379 159.356 6.03304M159.356 60.321C165.352 57.0259 172.166 55.288 179.092 55.288C186.018 55.288 192.832 57.0259 198.829 60.321V6.03304C192.832 2.7379 186.018 1 179.092 1C172.166 1 165.352 2.7379 159.356 6.03304M159.356 60.321V6.03304" stroke="#8C7754" stroke-width="2" stroke-linecap="round" stroke-linejoin="round"/>
<path d="M135.163 51.8467L173.311 40.7224L186.104 7.35805L147.905 18.4824L135.171 51.8467H135.163Z" fill="#8C7754"/>
<path d="M160.629 34.8892C163.442 34.8892 165.722 32.9941 165.722 30.6563C165.722 28.3185 163.442 26.4234 160.629 26.4234C157.816 26.4234 155.536 28.3185 155.536 30.6563C155.536 32.9941 157.816 34.8892 160.629 34.8892Z" fill="white"/>
<path d="M27.3353 89.5297L18.835 53.4467L10.4036 89.5297H1L14.5247 33.8909H23.2142L36.7389 89.5297H27.3353ZM53.7308 89.8222H44.7831V60.0455H33.8997V51.9583H44.7831V33.5898H53.7308V89.8222Z" fill="#543D20" stroke="#8C7754" stroke-miterlimit="10"/>
<path d="M83.8083 58.4969L92.9538 89.5211H83.9373L78.9129 71.3935L72.0215 89.5211H62.2996L80.5906 41.8492H63.4008V33.8823H90.1232V41.8492L83.8169 58.4969H83.8083ZM103.7 53.3864H108.268V33.5898H116.768V89.8222H108.268V60.9919H103.7V89.8222H95.3972V33.5984H103.7V53.395V53.3864Z" fill="#543D20" stroke="#8C7754" stroke-miterlimit="10"/>
<path d="M174.154 81.3823V89.5815H140.669V33.8911H150.649V81.3823H174.154ZM189.795 52.5004H196.36V60.3468H189.795V89.831H180.65V33.5986H189.795V52.5004Z" fill="#543D20" stroke="#8C7754" stroke-miterlimit="10"/>
<path d="M223.477 35.6719H234.361V43.3978L224.897 50.1172L234.748 56.9569V66.4122L218.453 54.6426L201.84 66.3519V56.8967L220.767 43.4064H201.84V35.6805H212.981V31.5767H223.477V35.6805V35.6719ZM204.55 68.7265H244.281V33.5985H253.357V89.8308H204.55V68.7265ZM213.626 82.5781H244.281V75.9792H213.626V82.5781Z" fill="#543D20" stroke="#8C7754" stroke-miterlimit="10"/>
<path d="M263.656 65.1562V33.8911H272.603V42.8043H285.225V33.8911H294.043V65.1562H263.647H263.656ZM275.382 82.2771H304.359V33.5986H313.436V46.6157H320V54.7029H313.436V89.831H266.366V70.1548H275.382V82.2771ZM285.233 57.0173V50.6593H272.612V57.0173H285.233Z" fill="#543D20" stroke="#8C7754" stroke-miterlimit="10"/>
</svg>
