<svg width="756" height="736" viewBox="0 0 756 736" fill="none" xmlns="http://www.w3.org/2000/svg">
<path fill-rule="evenodd" clip-rule="evenodd" d="M613.761 197.746C584.274 141.969 499.162 124.337 433.236 194.359C367.31 264.382 315.913 160.87 244.445 160.264C157.287 159.524 -124.977 322.3 174.695 464.416C222.699 487.182 216.751 613.967 261.995 631.061C315.253 651.182 411.526 668.208 453.334 578.186C473.928 533.843 612.819 580.367 671.131 497.005C728.028 415.666 638.751 426.928 622.429 357.512C606.108 288.095 635.66 239.17 613.761 197.746Z" fill="#FAECDA"/>
<g clip-path="url(#clip0_639_1915)">
<path d="M324.346 574.902C327.617 574.902 330.268 572.262 330.268 569.005C330.268 565.748 327.617 563.108 324.346 563.108C321.076 563.108 318.425 565.748 318.425 569.005C318.425 572.262 321.076 574.902 324.346 574.902Z" fill="white"/>
<path d="M524.223 571.163C527.493 571.163 530.144 568.522 530.144 565.266C530.144 562.009 527.493 559.369 524.223 559.369C520.953 559.369 518.302 562.009 518.302 565.266C518.302 568.522 520.953 571.163 524.223 571.163Z" fill="white"/>
<path d="M166.921 545.805C170.191 545.805 172.842 543.164 172.842 539.908C172.842 536.651 170.191 534.011 166.921 534.011C163.651 534.011 161 536.651 161 539.908C161 543.164 163.651 545.805 166.921 545.805Z" fill="white"/>
<path d="M336.767 562.82C338.362 562.82 339.655 561.533 339.655 559.944C339.655 558.355 338.362 557.067 336.767 557.067C335.171 557.067 333.878 558.355 333.878 559.944C333.878 561.533 335.171 562.82 336.767 562.82Z" fill="white"/>
<path d="M521.19 528.877C521.19 530.459 519.89 531.754 518.302 531.754C516.713 531.754 515.413 530.459 515.413 528.877C515.413 527.295 516.713 526 518.302 526C520.035 526 521.19 527.295 521.19 528.877Z" fill="white"/>
</g>
<path fill-rule="evenodd" clip-rule="evenodd" d="M295.687 568.759C295.051 568.495 294.361 568.361 293.672 568.368C292.858 568.09 293.336 566.763 294.132 566.433C294.927 566.103 295.924 566.141 296.506 565.507C296.994 564.974 296.994 564.171 297.238 563.491C297.482 562.811 298.268 562.63 298.819 563.097C298.931 564.988 301.288 563.659 303.002 564.695C303.958 565.273 302.365 566.046 302.478 566.978C302.622 568.161 305.325 570.828 304.046 570.361C302.65 569.852 300.696 569.066 299.23 569.305C297.917 569.519 297.081 570.685 295.999 571.46C295.651 570.611 295.542 569.665 295.687 568.759Z" fill="#FFB61D"/>
<path fill-rule="evenodd" clip-rule="evenodd" d="M276.775 634.856C277.382 635.222 277.834 635.837 278.003 636.525C277.32 636.704 276.088 635.264 275.143 635.536C274.186 635.811 273.517 637.797 272.802 637.767C272.054 637.735 273.48 636.124 273.121 635.163C272.798 634.299 270.651 634.103 270.654 633.642C270.657 633.292 272.195 633.331 272.802 632.774C273.19 632.419 272.719 631.415 272.802 631.239C273.121 630.564 274.329 631.239 275.143 632.179C276.02 631.948 276.896 631.717 277.772 631.486C278.15 632.671 275.992 633.251 276.391 634.366L276.775 634.856Z" fill="#FFB61D"/>
<path fill-rule="evenodd" clip-rule="evenodd" d="M534.51 531.75C534.51 531.75 530.267 534.684 528.255 529.147C526.243 523.61 524.979 519.702 524.979 519.702C524.979 519.702 520.651 515.358 518.391 515.358C516.131 515.358 508.725 510.239 509.485 506.215C510.245 502.192 519 502.649 521.489 502.649C523.978 502.649 522.092 496.529 522.092 494.671C522.092 492.814 525.014 477.035 531.963 479.396C538.912 481.757 542.68 485.908 539.913 493.106C547.157 492.758 553.752 489.42 554.598 503.595C554.019 508.803 554.156 510.003 557.334 513.863C560.513 517.722 561.806 523.531 559.163 525.507C556.52 527.483 552.221 528.241 550.786 529.147C549.352 530.053 548.589 532.026 548.589 535.282C548.589 538.538 543.598 532.866 543.598 532.866L538.912 527.866L534.51 531.75Z" fill="white"/>
<path d="M475.405 351.043C480.227 402.558 484.244 454.148 487.455 505.788C487.834 511.889 488.066 518.511 484.575 523.535C482.233 526.906 478.525 529.054 474.825 530.842C461.287 537.387 446.365 540.545 431.489 542.781C390.932 548.876 349.405 548.509 308.963 541.697C300.96 540.349 292.84 538.693 285.785 534.692C278.729 530.692 272.801 523.939 271.744 515.912C262.94 449.073 258.012 381.726 256.993 314.32C256.919 309.436 256.747 304.187 253.814 300.276C250.637 296.04 244.96 294.404 241.371 290.509C235.18 283.789 237.509 272.314 244.004 265.886C250.5 259.459 259.821 256.908 268.774 255.03C294.933 249.547 321.857 247.71 348.521 249.592C349.308 251.738 346.073 252.941 343.783 252.944C318.733 252.973 293.686 255.019 268.965 259.054C259.907 260.533 250.03 262.792 244.543 270.132C269.505 278.339 296.268 278.807 322.55 279.008C369.529 279.367 416.845 279.086 462.972 270.187C467.078 269.395 471.53 268.32 474.077 265.01C476.623 261.7 475.424 255.571 471.269 255.088C435.724 250.952 399.812 249.957 364.091 252.118C361.332 252.285 357.27 250.629 358.62 248.224C391.386 246.671 424.26 247.392 456.926 250.379C465.698 251.181 474.937 252.329 481.955 257.639C489.404 263.273 493.116 273.41 491.061 282.507C489.006 291.604 481.295 299.174 472.143 301.078" fill="white"/>
<path fill-rule="evenodd" clip-rule="evenodd" d="M351.569 247.182C352.75 214.72 357.564 181.976 352.114 149.954C351.515 146.437 350.785 142.911 349.375 139.634C346.993 134.098 342.652 129.43 337.306 126.655C335.665 125.803 333.838 125.043 332.837 123.487C331.836 121.932 332.341 119.297 334.166 119C341.645 120.197 347.744 126.043 351.117 132.83C354.491 139.617 355.552 147.293 356.328 154.833C359.051 181.295 358.827 208.06 355.663 234.472C354.586 243.46 353.206 252.826 356.204 261.366C355.3 261.15 354.396 260.933 353.492 260.717C351.357 256.63 351.401 251.79 351.569 247.182H351.569Z" fill="#E7EAEE"/>
<path d="M266.62 572.624C264.724 574.714 261.772 575.825 258.943 575.514C257.52 575.357 256.753 577.433 257.568 578.593C258.383 579.752 259.973 580.074 261.405 580.117C262.836 580.161 264.341 580.036 265.631 580.649C260.792 582.832 255.952 585.015 251.113 587.198C237.185 597.458 258.271 593.401 261.75 592.605C257.87 596.458 255.192 600.626 258.173 600.751C255.498 601.931 262.149 598.983 260.298 601.22C258.446 603.457 257.85 606.986 259.767 609.169C262.979 609.131 265.847 606.165 265.728 603.004C271.872 604.182 278.178 604.536 284.418 604.054C288.043 603.774 290.803 599.789 289.903 596.321C289.002 592.852 284.831 590.655 281.348 591.683C285.827 589.679 290.07 587.167 293.967 584.212C292.909 582.625 291.851 581.039 290.793 579.452C289.18 577.033 287.523 574.567 285.194 572.803C282.865 571.038 279.697 570.075 276.933 571.057C274.169 572.039 272.278 575.391 273.544 578.002C272.682 579.065 270.801 579.074 269.928 578.02C269.054 576.966 269.442 575.153 270.672 574.535C271.773 573.982 271.904 572.377 271.26 571.339C270.615 570.302 269.461 569.699 268.361 569.146C265.417 567.664 261.638 566.243 259.052 568.27C260.106 568.892 261.342 569.21 262.57 569.176C260.903 570.156 259.236 571.137 257.569 572.117C256.981 572.659 258.171 573.326 258.973 573.259C261.522 573.048 264.071 572.836 266.62 572.624Z" fill="white"/>
<path fill-rule="evenodd" clip-rule="evenodd" d="M258.973 573.259C261.522 573.047 264.071 572.836 266.621 572.624C264.724 574.714 261.772 575.825 258.943 575.513C257.52 575.356 256.753 577.433 257.568 578.592C258.383 579.752 259.973 580.074 261.405 580.117C262.836 580.161 264.341 580.036 265.631 580.649C260.792 582.832 255.953 585.015 251.113 587.197C254.66 587.62 258.281 587.428 261.761 586.632C257.881 590.484 249.84 588.348 247.045 593.024C252.62 593.682 258.353 592.998 263.607 591.05C263.578 592.913 261.366 593.921 259.491 594.172C257.616 594.422 255.45 594.492 254.275 595.952C253.512 596.9 252.005 596.609 250.839 596.228C248.905 595.596 246.902 594.925 245.428 593.539C243.953 592.153 243.172 589.834 244.179 588.089C246.388 584.26 254.213 586.525 255.534 582.317C255.864 581.264 255.599 580.13 255.338 579.058C254.731 576.564 254.147 573.997 254.493 571.455C254.839 568.913 256.311 566.364 258.735 565.426C262.808 563.85 266.978 567.249 271.248 568.193C274.462 568.904 277.871 568.189 281.083 568.912C285.707 569.951 289.1 573.721 292.163 577.287C293.551 578.904 294.989 580.617 295.404 582.695C295.819 584.772 294.799 587.291 292.712 587.799C290.814 588.261 290.062 590.631 290.432 592.521C290.803 594.411 291.919 596.081 292.436 597.937C292.953 599.794 292.622 602.166 290.881 603.041C287.21 604.888 283.362 606.778 279.24 606.78C276.479 606.782 273.78 605.928 271.02 605.842C268.26 605.757 265.147 606.723 263.985 609.189C262.815 611.669 258.681 611.11 257.151 608.828C255.622 606.545 255.909 603.567 256.255 600.854C256.356 600.057 256.482 599.206 257.027 598.609C257.473 598.12 258.131 597.882 258.768 597.686C261.616 596.81 264.619 596.423 267.6 596.548C264.925 597.728 262.149 598.982 260.298 601.219C258.446 603.456 257.85 606.986 259.768 609.169C262.979 609.131 265.847 606.164 265.728 603.004C271.872 604.182 278.178 604.536 284.418 604.053C288.043 603.773 290.803 599.789 289.903 596.32C289.002 592.851 284.831 590.655 281.349 591.683C285.827 589.679 290.07 587.167 293.967 584.212C292.909 582.625 291.851 581.039 290.793 579.452C289.18 577.033 287.523 574.567 285.194 572.802C282.865 571.038 279.697 570.075 276.933 571.057C274.169 572.039 272.278 575.39 273.545 578.001C272.682 579.064 270.801 579.074 269.928 578.02C269.054 576.965 269.442 575.153 270.673 574.534C271.773 573.982 271.905 572.377 271.26 571.339C270.615 570.302 269.461 569.699 268.361 569.146C265.417 567.664 261.638 566.242 259.052 568.269C260.106 568.891 261.342 569.21 262.57 569.175C260.903 570.156 259.236 571.136 257.569 572.117C256.981 572.658 258.171 573.326 258.973 573.259V573.259Z" fill="#FFB61D"/>
<path fill-rule="evenodd" clip-rule="evenodd" d="M343.361 241.111C343.106 240.124 343.478 238.938 344.387 238.468C344.682 239.083 344.978 239.698 345.274 240.314C344.656 240.694 344.038 241.075 343.421 241.455L343.361 241.111Z" fill="#E7EAEE"/>
<path d="M269.396 585.922C269.789 587.865 269.56 589.914 268.746 591.739C271.017 591.975 273.321 591.941 275.584 591.637C274.014 594.027 269.99 594.696 267.834 592.746C265.678 590.797 266.527 586.731 269.396 585.922L269.396 585.922Z" fill="white"/>
<path fill-rule="evenodd" clip-rule="evenodd" d="M346.05 194.688C345.176 205.786 344.813 216.918 344.961 228.044C344.99 230.222 345.065 232.495 346.195 234.411C346.528 234.975 345.674 235.626 345.001 235.454C344.328 235.281 343.923 234.665 343.621 234.087C339.527 226.25 342.113 217.025 341.93 208.335C341.811 202.68 340.498 196.852 342.416 191.477C342.803 190.391 344.699 190.472 345.45 191.384C346.201 192.295 346.14 193.548 346.05 194.688L346.05 194.688Z" fill="#E7EAEE"/>
<path d="M214.29 472.094C215.032 473.382 215.043 475.111 214.316 476.409C213.525 473.204 209.351 471.642 206.861 473.62C205.947 474.346 204.957 475.499 203.903 475.038C204.392 474.845 204.465 473.987 204.017 473.703C206.104 470.139 211.333 469.32 214.29 472.094H214.29Z" fill="black"/>
<path fill-rule="evenodd" clip-rule="evenodd" d="M222.465 468.873C222.564 468.432 222.662 467.992 222.747 467.558C223.246 465.021 222.949 461.796 220.611 460.702C218.992 459.945 217.236 460.573 215.482 461.201C214.825 461.436 214.169 461.671 213.519 461.833C209.871 462.745 205.727 461.032 203.779 457.808C202.304 455.365 198.219 456.641 196.864 459.154C196.008 460.74 195.781 462.538 195.552 464.345C195.419 465.4 195.285 466.458 195.026 467.479C194.322 470.246 191.811 473.095 189.079 472.283C186.903 471.636 184.366 472.498 183.03 474.337C181.694 476.175 181.654 478.861 182.935 480.738C184.491 483.019 187.303 483.718 190.07 484.406C190.86 484.602 191.647 484.798 192.399 485.029C193.695 485.427 195.021 486.028 195.764 487.164C196.507 488.301 196.377 490.088 195.193 490.75C193.255 491.833 193.414 495.029 195.17 496.39C196.927 497.75 199.525 497.496 201.444 496.377C203.362 495.257 204.754 493.438 206.095 491.664C208.158 488.936 212.506 488.328 215.235 490.386C215.221 488.005 216.573 485.664 218.64 484.49C220.707 483.316 223.405 483.357 225.435 484.594C227.213 483.874 227.096 481.191 225.994 479.618C225.546 478.978 224.995 478.413 224.445 477.849C223.643 477.025 222.844 476.205 222.376 475.165C221.498 473.211 221.988 471.013 222.465 468.873ZM215.772 482.703C216.116 483.887 215.927 485.215 215.266 486.255L215.458 486.449C214.317 487.048 212.859 486.986 211.773 486.291L212.925 483.325C213.79 482.855 214.79 482.637 215.772 482.703Z" fill="white"/>
<path fill-rule="evenodd" clip-rule="evenodd" d="M532.569 347.134C531.404 345.756 530.239 344.376 529.019 343.052C525.256 338.967 520.644 335.242 515.155 334.413C514.576 334.325 513.99 334.27 513.405 334.216C512.225 334.106 511.047 333.996 509.928 333.617C508.433 333.111 507.134 332.153 505.931 331.13C504.302 329.744 502.732 328.182 501.158 326.615C496.529 322.007 491.87 317.37 485.585 317.126C478.966 316.869 472.752 322.813 472.707 329.444C472.669 335.007 476.269 339.85 479.701 344.226L539.385 420.327L576.39 467.511C581.168 473.603 587.447 480.347 595.112 479.285C602 478.33 606.626 470.239 604.663 463.561C603.908 460.995 602.422 458.755 600.933 456.51C599.635 454.553 598.334 452.592 597.514 450.408C596.208 446.929 596.22 443.193 596.231 439.44C596.24 436.568 596.249 433.686 595.668 430.901C594.379 424.734 590.318 419.554 586.187 414.8C583.951 412.227 581.581 408.417 583.719 405.763C586.262 402.603 584.993 397.939 583.386 394.213C578.23 382.254 570.744 371.307 561.473 362.168C557.503 358.255 551.727 354.446 546.76 356.973C544.667 358.038 542.164 356.73 540.34 355.25C537.426 352.883 534.998 350.01 532.569 347.134ZM576.284 396.669C576.68 398.692 576.302 400.979 574.831 402.422C574.469 402.777 574.018 403.084 573.512 403.105C572.649 403.139 571.995 402.366 571.485 401.667L548.361 369.938C547.472 368.718 548.092 366.82 549.387 366.045C550.683 365.27 552.378 365.453 553.722 366.139C555.067 366.825 556.133 367.944 557.152 369.058C563.367 375.844 568.933 383.225 573.751 391.067C574.83 392.823 575.889 394.646 576.284 396.669Z" fill="white"/>
<path fill-rule="evenodd" clip-rule="evenodd" d="M483.618 514.311C484.437 511.591 484.241 508.684 484.038 505.852L472.24 341.187C474.63 343.771 475.078 347.542 475.405 351.043C480.227 402.558 484.244 454.148 487.455 505.788C487.834 511.889 488.066 518.511 484.575 523.535C482.233 526.906 478.525 529.054 474.825 530.842C461.287 537.387 446.365 540.545 431.489 542.781C390.931 548.876 349.405 548.509 308.963 541.697C300.96 540.349 292.84 538.693 285.785 534.692C278.729 530.692 272.801 523.939 271.743 515.912C262.94 449.073 258.012 381.726 256.992 314.32C256.919 309.436 256.747 304.187 253.814 300.276C252.102 297.994 249.665 296.467 247.22 294.934C245.126 293.622 243.026 292.306 241.371 290.509C235.18 283.789 237.509 272.314 244.004 265.886C250.5 259.459 259.821 256.908 268.774 255.03C294.933 249.547 321.857 247.71 348.521 249.592C349.308 251.738 346.073 252.941 343.782 252.944C318.733 252.973 293.686 255.019 268.965 259.054C259.907 260.533 250.03 262.792 244.543 270.132C269.505 278.339 296.267 278.807 322.55 279.008C369.529 279.367 416.845 279.086 462.972 270.187C467.078 269.395 471.53 268.32 474.077 265.01C476.623 261.7 475.424 255.571 471.269 255.088C435.724 250.952 399.811 249.957 364.09 252.118C361.332 252.285 357.269 250.629 358.62 248.224C391.386 246.671 424.26 247.392 456.926 250.379C465.698 251.181 474.937 252.329 481.955 257.639C489.404 263.273 493.116 273.41 491.061 282.507C489.006 291.604 481.295 299.174 472.143 301.078L471.76 323.465C469.265 320.898 469.6 317.02 469.921 313.317C469.986 312.561 470.051 311.814 470.091 311.086C470.326 306.787 467.775 301.183 463.551 302.061C396.694 315.959 327.033 316.287 260.048 303.022C260.12 367.001 266.173 430.806 272.221 494.5C272.942 502.096 273.698 509.832 276.687 516.856C279.675 523.88 285.307 530.208 292.722 532.086C327.962 541.009 364.54 544.659 400.855 542.879C425.669 541.662 450.997 537.707 472.617 525.498C477.291 522.858 482.073 519.442 483.618 514.311ZM242.173 272.871C239.97 280.662 244.512 289.118 251.082 293.871C257.652 298.624 265.853 300.439 273.834 301.909C338.05 313.736 404.454 310.369 468.539 297.855C473.422 296.901 478.544 295.774 482.253 292.465C486.364 288.797 488.005 282.952 487.674 277.46C487.342 271.967 485.273 266.735 482.957 261.741C479.642 269.84 469.681 272.533 461.035 274C403.681 283.734 345.156 285.319 287.054 282.34C280.448 282.001 273.831 281.602 267.303 280.538C258.631 279.126 250.153 276.539 242.173 272.871ZM277.861 490.219C276.599 489.117 275.146 487.849 273.555 488.268C272.942 492.378 277.779 494.928 281.741 496.073C286.983 497.588 292.476 498.976 297.836 497.969C299.77 497.605 301.696 496.902 303.161 495.578C306.449 492.606 306.556 487.538 306.406 483.088C305.058 443.17 302.853 403.282 299.792 363.46C299.302 357.095 298.407 349.972 293.431 346.024C291.383 344.399 288.864 343.524 286.397 342.678L269.21 336.785C266.889 335.989 263.859 335.388 262.374 337.356C261.451 338.579 261.598 340.28 261.785 341.806C267.3 386.684 270.375 431.868 270.992 477.085C271.078 483.323 276.521 488.336 282.366 490.376C288.717 492.592 295.628 492.229 302.337 491.839C295.101 496.747 284.636 496.115 278.034 490.37L277.861 490.219ZM301.95 486.511C297.413 489.655 291.379 489.243 285.962 488.258C282.753 487.674 279.329 486.788 277.25 484.255C275.106 481.642 274.943 477.966 274.868 474.575C273.861 429.221 270.595 383.919 265.086 338.895L282.776 345C286.975 346.449 291.455 348.104 294.009 351.765C296.222 354.937 296.56 359.02 296.826 362.889L300.245 412.637C301.936 437.23 303.627 461.917 301.95 486.511ZM377.243 500.707C371.85 499.261 366.309 498.369 360.734 498.048L360.449 498.032C356.377 497.799 351.782 497.536 349.268 494.368C348.078 492.868 347.586 490.95 347.144 489.089C338.377 452.208 337.543 413.977 336.75 376.083L336.368 357.834C336.342 356.569 336.293 355.23 335.599 354.172C334.905 353.113 333.317 352.533 332.331 353.329L333.925 415.906C334.036 420.285 334.148 424.664 334.404 429.036C335.583 449.144 339.807 468.936 344.019 488.636C345.09 493.647 347.264 499.72 352.373 500.309L377.99 503.264C378.202 503.288 378.421 503.312 378.625 503.25C379.882 502.864 378.513 501.048 377.243 500.707ZM470.038 470.633C470.292 477.762 470.354 485.528 466.029 491.202C472.427 487.039 472.889 478.017 472.664 470.39L470.689 403.584C470.173 386.111 469.624 368.421 464.795 351.62C463.916 348.559 462.816 345.407 460.506 343.215C458.195 341.022 454.332 340.148 451.8 342.081C446.747 345.94 440.032 346.072 433.556 346.199C432.553 346.219 431.555 346.239 430.57 346.272C423.229 346.52 414.691 348.655 411.902 355.446C410.186 359.624 411.217 364.343 412.184 368.769L412.249 369.071C417.539 393.322 418.257 418.182 418.975 443.056V443.056C419.302 454.405 419.63 465.757 420.392 477.055C420.845 483.768 421.556 490.782 425.255 496.403C425.988 497.516 426.863 498.586 428.042 499.207C429.16 499.795 430.454 499.931 431.713 500.033C438.511 500.586 445.52 500.449 451.915 498.078C458.309 495.708 464.043 490.801 466.027 484.279C467.238 480.299 467.001 476.046 466.77 471.89L466.763 471.758C465.509 449.219 465.204 426.627 465.849 404.063C465.873 403.214 465.898 402.365 465.923 401.513C466.427 384.561 466.947 367.031 459.892 351.679C458.949 349.626 457.8 347.546 455.909 346.31C455.811 346.246 455.709 346.181 455.606 346.116C454.869 345.651 454.068 345.145 454.007 344.306C455.498 343.23 457.703 343.747 459.054 344.994C460.406 346.241 461.096 348.032 461.69 349.772C464.012 356.574 465.545 363.646 466.248 370.799C466.627 374.662 466.765 378.544 466.903 382.423L470.038 470.633ZM415.767 352.707C418.419 349.641 422.926 349.178 426.974 348.931L448.385 347.625C450.533 347.494 452.872 347.414 454.621 348.666C455.819 349.524 456.545 350.881 457.163 352.217C462.122 362.944 462.657 375.119 462.901 386.933C463.583 419.873 462.653 452.847 460.117 485.696C459.844 489.237 457.052 492.185 453.827 493.676C450.602 495.168 446.974 495.474 443.432 495.758L433.541 496.55C432.319 496.648 431.027 496.734 429.928 496.19C428.318 495.393 427.608 493.516 427.091 491.797C421.744 474.032 421.723 455.408 421.701 436.74C421.69 426.97 421.678 417.188 420.903 407.51C419.79 393.604 417.091 379.881 414.398 366.193L414.353 365.966C413.463 361.441 412.749 356.195 415.767 352.707ZM512.835 510.893C514.688 512.733 517.066 514.053 519.622 514.66C521.809 515.179 523.215 517.778 522.434 519.859C522.495 520.158 522.021 520.319 521.771 520.138C521.556 519.983 521.471 519.718 521.389 519.462L521.387 519.458C521.375 519.418 521.362 519.378 521.349 519.339C520.729 517.507 518.711 516.59 516.913 515.824C514.366 514.74 511.765 513.483 510.07 511.318C508.375 509.153 507.887 505.831 509.681 503.745C510.855 502.378 512.705 501.815 514.449 501.316C516.775 500.651 519.215 499.981 521.584 500.471L522.124 501.534C523.246 502.218 524.821 502.073 525.795 501.196C526.879 500.22 528.53 500.294 529.991 500.427L537.881 501.145C538.266 501.18 538.672 501.222 538.986 501.444C539.919 502.105 539.173 503.703 538.069 504.019C537.275 504.246 536.45 504.09 535.624 503.935L535.623 503.935C535.302 503.874 534.981 503.814 534.662 503.776C534.266 503.728 533.851 503.719 533.482 503.87C532.379 504.321 532.309 505.85 532.652 506.979C532.712 507.173 532.778 507.37 532.845 507.568C533.164 508.519 533.494 509.499 533.126 510.404C532.102 510.861 530.908 509.929 530.6 508.863C530.366 508.053 530.463 507.204 530.561 506.358C530.568 506.292 530.576 506.227 530.583 506.162C530.59 506.105 530.596 506.048 530.602 505.991C530.61 505.918 530.617 505.846 530.624 505.773C530.631 505.701 530.637 505.63 530.643 505.558C530.727 504.453 530.548 503.189 529.642 502.533C525.977 504.258 521.84 504.994 517.795 504.639C517.475 504.611 517.154 504.576 516.834 504.541L516.833 504.541C515.809 504.43 514.784 504.319 513.762 504.425C512.421 504.564 511.042 505.154 510.359 506.301C510.885 506.633 511.275 507.168 511.427 507.764L524.334 510.255C523.376 511.296 521.75 511.308 520.327 511.241L512.835 510.893ZM396.593 476.824C393.982 445.572 393.153 414.172 394.111 382.826L394.133 382.117C394.345 375.249 394.56 368.277 392.762 361.65C390.902 354.795 386.489 348.231 379.845 345.641C375.986 344.137 371.734 344.078 367.589 344.04C356.8 343.939 345.915 343.848 335.343 345.999C331.841 346.712 328.011 347.955 326.328 351.093C325.162 353.266 325.305 355.874 325.478 358.331L334.888 492.008C335.069 494.574 335.301 497.289 336.809 499.378C338.377 501.549 341.026 502.633 343.576 503.474C354.391 507.039 366.025 508.12 377.316 506.607C376.288 505.151 374.299 504.815 372.524 504.601L350.466 501.935C348.244 501.667 345.954 501.376 344.013 500.268C339.315 497.584 338.363 491.366 337.924 485.993C334.404 442.921 330.882 399.837 329.028 356.662C328.928 354.323 329.042 351.55 331.005 350.26C331.999 349.607 333.248 349.512 334.437 349.437L366.869 347.39C370.532 347.159 374.317 346.945 377.765 348.194C382.54 349.925 385.959 354.262 387.907 358.931C390.881 366.057 390.942 374.01 390.843 381.725C390.772 387.279 390.641 392.838 390.51 398.399L390.51 398.401C390.009 419.66 389.508 440.94 392.334 461.985C392.471 463.004 392.614 464.03 392.758 465.063L392.759 465.068C394.44 477.151 396.236 490.048 389.706 500.163L389.655 500.242L389.596 500.333C389.107 501.085 388.598 501.869 388.574 502.756C388.548 503.711 389.407 504.746 390.332 504.492C390.695 504.393 390.983 504.124 391.246 503.855C397.896 497.054 397.383 486.281 396.593 476.824ZM346.325 266.373C350.551 266.537 355.04 267.556 357.95 270.725C358.517 271.341 359.022 272.035 359.526 272.728L359.526 272.728C360.576 274.171 361.62 275.605 363.194 276.306C360.783 275.44 358.151 275.243 355.644 275.739C354.774 275.911 353.918 276.165 353.064 276.419C351.713 276.819 350.366 277.219 348.969 277.295L351.759 274.846C352.757 273.971 353.886 273.045 355.195 273.089C355.41 270.865 353.69 268.75 351.6 268.167C349.51 267.584 347.225 268.322 345.506 269.68C343.787 271.039 342.559 272.952 341.54 274.923C341.134 275.708 340.581 276.624 339.72 276.614C339.007 276.253 339.035 275.17 339.382 274.432C339.482 274.219 339.6 274.012 339.718 273.804L339.718 273.804C340.01 273.292 340.3 272.781 340.319 272.198C340.367 270.711 338.728 269.864 337.361 269.393C335.997 268.924 334.345 268.504 333.247 269.46C332.448 270.156 332.263 271.33 332.131 272.4L331.681 276.034C329.337 276.857 326.751 276.931 324.367 276.244C327.189 274.486 330.292 272.317 330.815 268.958C335.752 267.052 341.057 266.168 346.325 266.373ZM222.747 467.558C223.246 465.021 222.949 461.796 220.611 460.703C218.992 459.945 217.236 460.574 215.482 461.201C214.825 461.436 214.169 461.671 213.519 461.834C209.871 462.745 205.727 461.032 203.779 457.808C202.304 455.365 198.219 456.642 196.864 459.154C196.008 460.74 195.781 462.538 195.552 464.345C195.419 465.4 195.285 466.459 195.026 467.479C194.322 470.247 191.811 473.095 189.079 472.283C186.903 471.636 184.366 472.498 183.03 474.337C181.694 476.175 181.654 478.861 182.935 480.739C184.491 483.019 187.303 483.718 190.07 484.406C190.86 484.602 191.647 484.798 192.399 485.029C193.695 485.427 195.021 486.028 195.764 487.164C196.507 488.301 196.377 490.088 195.193 490.75C193.255 491.833 193.414 495.029 195.17 496.39C196.927 497.75 199.525 497.496 201.444 496.377C203.362 495.257 204.754 493.438 206.095 491.664C208.158 488.936 212.506 488.328 215.235 490.387C215.221 488.005 216.573 485.664 218.64 484.49C220.707 483.316 223.405 483.358 225.435 484.594C227.213 483.874 227.096 481.191 225.994 479.618C225.546 478.978 224.995 478.413 224.445 477.849C223.643 477.025 222.844 476.205 222.376 475.165C221.498 473.211 221.988 471.013 222.465 468.874L222.465 468.873C222.564 468.432 222.662 467.992 222.747 467.558ZM216.56 463.177C217.983 462.85 219.682 463.015 220.596 464.157C221.783 465.642 221.001 467.447 220.184 469.333C219.517 470.872 218.827 472.464 219.166 473.98C219.434 475.179 220.321 476.128 221.172 477.012L225.204 481.2C223.497 482.788 221.137 482.138 218.715 481.472C216.537 480.873 214.309 480.26 212.461 481.247C211.108 481.971 210.331 483.386 209.582 484.749C209.493 484.91 209.405 485.071 209.316 485.229C206.984 489.399 203.569 492.953 199.499 495.445C198.981 495.762 198.407 496.073 197.802 496.014C196.325 495.871 195.953 493.834 196.325 492.394C196.762 490.697 197.653 489.124 198.537 487.564C199.813 485.312 201.072 483.088 200.927 480.562C199.375 483.136 196 484.117 193.029 483.696C190.058 483.276 187.384 481.726 184.795 480.207C183.007 479.158 183.647 476.141 185.429 475.084C187.212 474.026 189.449 474.312 191.499 474.609C193.55 474.905 195.807 475.137 197.542 474.001C196.687 470.193 196.88 466.154 198.095 462.445C198.533 461.107 199.172 459.727 200.376 459.002C201.58 458.276 203.464 458.572 203.964 459.888C205.205 463.152 208.978 465.225 212.39 464.516C213.132 464.362 213.842 464.096 214.553 463.83L214.553 463.83L214.553 463.83C215.213 463.582 215.874 463.335 216.56 463.177ZM215.772 482.703C216.116 483.887 215.927 485.215 215.266 486.255L215.458 486.449C214.317 487.048 212.859 486.986 211.773 486.292L212.925 483.325C213.79 482.855 214.79 482.637 215.772 482.703ZM529.836 534.049C526.154 528.122 523.753 521.428 522.838 514.54C525.366 515.184 526.672 517.957 527.089 520.494C527.206 521.204 527.282 521.927 527.359 522.649C527.557 524.51 527.755 526.37 528.634 528.007C529.855 530.279 533.154 531.756 535.109 530.053C535.595 529.63 535.962 529.05 536.323 528.48C536.911 527.55 537.484 526.645 538.53 526.488C539.828 526.293 540.886 527.447 541.671 528.483L546.488 534.842C547.749 534.466 547.832 533.127 547.92 531.708C547.974 530.835 548.03 529.931 548.363 529.203C549.134 527.523 551.034 527.252 553.014 526.969C554.404 526.771 555.833 526.567 556.938 525.866C558.925 524.608 559.457 521.837 558.719 519.629C557.98 517.42 556.254 515.678 554.466 514.158C551.876 511.956 552.331 508.378 552.792 504.758C553.233 501.288 553.68 497.779 551.451 495.408C548.34 492.097 542.803 493.86 538.686 495.839L536.934 493.834C540.293 492.608 540.901 487.703 538.712 484.912C536.523 482.121 532.65 481.165 529.068 481.149C528.549 481.146 527.986 481.175 527.586 481.501C526.343 482.515 528.097 484.295 529.596 484.884L536.919 487.758C535.227 488.905 532.992 488.226 530.824 487.567C528.471 486.851 526.196 486.159 524.774 487.849C523.177 489.747 524.861 492.704 527.027 493.941C527.864 494.419 528.774 494.779 529.681 495.138L529.681 495.138C531.121 495.707 532.554 496.274 533.676 497.306C532.219 498.037 530.562 497.503 528.948 496.983C528.539 496.852 528.133 496.721 527.733 496.611C525.756 496.072 522.893 496.745 522.919 498.763C520.888 496.52 521.424 493.076 522.085 490.144C522.827 486.858 523.629 483.452 525.741 480.804C527.854 478.157 531.681 476.513 534.788 477.92C537.437 479.12 538.677 481.953 539.859 484.653L539.86 484.657C540.042 485.072 540.223 485.484 540.406 485.886C541.787 488.907 544.537 492.106 547.831 491.423C550.82 490.804 553.811 493.029 555.06 495.772C556.31 498.516 556.239 501.641 556.144 504.646C556.05 507.657 557.417 510.417 558.78 513.169C559.238 514.095 559.696 515.019 560.098 515.951C561.694 519.657 562.116 524.638 558.865 527.08C557.763 527.908 556.422 528.289 555.077 528.672L555.077 528.672C554.458 528.848 553.838 529.025 553.241 529.245C551.346 529.943 549.431 531.501 549.591 533.486C549.612 533.747 549.669 534.006 549.726 534.265C549.822 534.702 549.918 535.138 549.837 535.573C549.609 536.804 548.023 537.388 546.802 537.039C545.582 536.69 544.668 535.717 543.82 534.786L538.437 528.875C536.934 532.052 533.394 534.181 529.836 534.049ZM529.019 343.052C525.256 338.966 520.644 335.242 515.155 334.412C514.576 334.325 513.99 334.27 513.405 334.216C512.225 334.105 511.047 333.995 509.928 333.617C508.433 333.111 507.134 332.153 505.931 331.13C504.302 329.744 502.732 328.181 501.158 326.615C496.529 322.007 491.87 317.37 485.585 317.126C478.966 316.869 472.752 322.813 472.707 329.444C472.669 335.007 476.269 339.85 479.701 344.225L539.385 420.327L576.39 467.511C581.168 473.603 587.447 480.347 595.112 479.285C602 478.33 606.626 470.238 604.663 463.561C603.908 460.995 602.422 458.755 600.933 456.51C599.635 454.553 598.334 452.592 597.514 450.408C596.208 446.929 596.22 443.193 596.231 439.44C596.24 436.567 596.249 433.685 595.668 430.901C594.379 424.733 590.318 419.554 586.187 414.8C583.951 412.227 581.581 408.417 583.719 405.762C586.262 402.603 584.993 397.938 583.387 394.213C578.23 382.254 570.744 371.307 561.473 362.168C557.503 358.255 551.727 354.446 546.76 356.973C544.667 358.038 542.164 356.73 540.34 355.249C537.426 352.883 534.998 350.01 532.569 347.134C531.404 345.756 530.239 344.376 529.019 343.052ZM478.647 323.027C481.102 320.625 484.812 319.586 488.156 320.366C491.978 321.257 494.937 324.219 497.52 327.176C504.338 334.977 510.088 343.63 515.827 352.266C516.467 353.23 517.108 354.194 517.75 355.157C541.885 391.35 568.282 426.031 596.735 458.93C599.519 462.149 602.52 466.119 601.432 470.235C600.201 474.895 594.063 476.702 589.539 475.052C585.015 473.402 581.798 469.442 578.817 465.656L480.39 340.665C478.434 338.182 476.421 335.579 475.774 332.484C475.071 329.12 476.192 325.43 478.647 323.027ZM558.434 395.996C556.452 393.435 554.329 390.914 551.637 389.116C550.337 388.248 548.871 387.499 547.407 386.752C543.658 384.838 539.917 382.928 539.001 379.032C538.71 377.795 538.776 376.521 538.842 375.244C538.893 374.248 538.944 373.25 538.827 372.265C538.633 370.648 537.99 369.121 537.289 367.65C531.975 356.497 522.845 347.209 511.79 341.71C509.958 340.799 511.094 337.62 513.102 337.225C515.11 336.83 517.024 338.133 518.623 339.411C534.429 352.055 545.981 368.761 557.569 385.519C564.64 395.745 571.724 405.989 579.796 415.342C580.572 416.241 581.359 417.135 582.148 418.031C586.539 423.018 590.965 428.044 593.601 434.11C590.138 434.729 587.138 437.451 586.184 440.84C580.414 435.402 576.927 428.152 573.461 420.943C572.572 419.094 571.684 417.248 570.759 415.436C567.267 408.591 563.134 402.073 558.434 395.996ZM574.831 402.422C574.469 402.776 574.018 403.084 573.512 403.104C572.649 403.139 571.995 402.366 571.485 401.667L548.361 369.938C547.472 368.718 548.092 366.819 549.387 366.045C550.683 365.27 552.378 365.453 553.722 366.139C555.067 366.825 556.133 367.944 557.152 369.058C563.367 375.844 568.933 383.225 573.751 391.067C574.83 392.823 575.889 394.646 576.284 396.669C576.68 398.692 576.302 400.979 574.831 402.422ZM578.216 399.313C578.632 397.683 577.928 395.996 577.201 394.479C571.967 383.572 564.621 373.684 555.69 365.529C554.245 364.209 552.363 362.844 550.505 363.455C549.819 363.681 549.261 364.147 548.7 364.615C548.374 364.888 548.046 365.161 547.692 365.388C546.729 366.006 545.2 366.132 544.653 365.127C544.229 364.35 544.672 363.376 545.261 362.716C547.294 360.443 550.872 360.131 553.732 361.187C556.592 362.243 558.889 364.4 561.047 366.555C568.821 374.318 576.07 383.062 579.467 393.514C580.983 398.18 581.463 403.906 578.055 407.433C577.772 407.726 577.456 408.004 577.071 408.139C575.854 408.565 574.582 407.266 574.553 405.975C574.524 404.685 575.32 403.532 576.147 402.542C576.235 402.436 576.324 402.33 576.414 402.224C577.164 401.338 577.932 400.43 578.216 399.313ZM528.032 356.135C531.18 360.716 533.916 365.581 536.196 370.65C536.509 371.347 536.798 372.216 536.332 372.821C535.994 373.26 535.292 373.358 534.846 373.028C528.285 365.053 522.373 356.543 517.188 347.611C517.653 347.779 518.335 347.531 518.291 347.038C522.465 348.74 525.479 352.418 528.032 356.135ZM551.023 394.805C550.446 393.967 549.956 392.629 550.829 392.107C554.674 393.847 557.305 397.438 559.702 400.915C563.197 405.984 566.575 411.134 569.832 416.36C570.612 417.612 571.285 419.488 570.087 420.348C568.044 419.423 566.671 417.491 565.397 415.644L551.023 394.805ZM589.241 442.324C588.934 442.191 588.719 441.903 588.575 441.601C587.702 439.775 589.607 437.334 591.588 437.739C591.673 439.517 591.178 441.318 590.196 442.801C590.096 442.566 589.837 442.498 589.575 442.429C589.46 442.399 589.344 442.369 589.241 442.324ZM593.724 446.605C593.119 447.263 591.943 447.262 591.339 446.602C590.701 444.929 591.472 442.841 593.044 441.986L593.724 446.605Z" fill="#00160A"/>
<defs>
<clipPath id="clip0_639_1915">
<rect width="449" height="127" fill="white" transform="translate(80.9998 526)"/>
</clipPath>
</defs>
</svg>
