<svg width="127" height="127" viewBox="0 0 127 127" fill="none" xmlns="http://www.w3.org/2000/svg">
<circle cx="63.5" cy="63.5" r="63.4" fill="white" stroke="#DFDFDF" stroke-width="0.2"/>
<path d="M62.9238 64.0776C71.8517 64.0776 79.0875 56.4543 79.0875 47.0481C79.0875 37.6419 71.8517 30.0186 62.9238 30.0186C53.9959 30.0186 46.7602 37.6419 46.7602 47.0481C46.7602 56.4543 53.9959 64.0776 62.9238 64.0776ZM74.2384 68.335H72.1295C69.3261 69.6921 66.2071 70.4637 62.9238 70.4637C59.6406 70.4637 56.5341 69.6921 53.7181 68.335H51.6093C42.2394 68.335 34.6375 76.3442 34.6375 86.2161V91.7507C34.6375 95.2763 37.3524 98.1367 40.6988 98.1367H85.1488C88.4952 98.1367 91.2102 95.2763 91.2102 91.7507V86.2161C91.2102 76.3442 83.6082 68.335 74.2384 68.335Z" fill="#563C0A"/>
</svg>
