<svg width="484" height="92" viewBox="0 0 484 92" fill="none" xmlns="http://www.w3.org/2000/svg">
<path d="M148.454 70.254C145.334 68.538 142.37 66.666 139.484 64.482C136.52 62.298 133.946 59.568 131.606 56.448C129.266 59.568 126.614 62.298 123.728 64.482C120.764 66.666 117.8 68.538 114.836 70.254C114.29 70.488 113.822 70.566 113.51 70.488C113.12 70.332 112.964 69.864 112.964 69.084V58.164C112.964 56.916 113.432 55.902 114.446 55.2C115.538 54.42 116.786 53.562 118.034 52.47C119.282 51.456 120.452 50.286 121.544 49.038C122.558 47.79 123.416 46.464 124.118 45.06C124.742 43.734 125.132 42.33 125.132 40.848V10.272C125.132 9.336 125.288 8.634 125.756 8.166C126.146 7.698 126.848 7.464 127.94 7.464H135.35C136.364 7.464 137.066 7.698 137.534 8.166C137.924 8.634 138.158 9.336 138.158 10.272V40.848C138.158 42.33 138.47 43.734 139.172 45.06C139.796 46.464 140.732 47.79 141.824 49.038C142.838 50.286 144.008 51.456 145.256 52.47C146.504 53.562 147.674 54.42 148.844 55.2C149.78 55.902 150.326 56.916 150.326 58.164V69.084C150.326 69.864 150.092 70.332 149.78 70.488C149.39 70.566 148.922 70.488 148.454 70.254ZM162.104 72.828C161.012 72.828 160.31 72.594 159.92 72.126C159.452 71.658 159.296 70.956 159.296 70.02V45.45H151.574C150.638 45.45 149.936 45.294 149.468 44.826C149 44.436 148.766 43.734 148.766 42.642V35.388C148.766 34.374 149 33.672 149.468 33.204C149.936 32.814 150.638 32.58 151.574 32.58H159.296V10.272C159.296 9.336 159.452 8.634 159.92 8.166C160.31 7.698 161.012 7.464 162.104 7.464H169.748C170.762 7.464 171.464 7.698 171.932 8.166C172.322 8.634 172.556 9.336 172.556 10.272V70.02C172.556 70.956 172.322 71.658 171.932 72.126C171.464 72.594 170.762 72.828 169.748 72.828H162.104ZM232.547 72.828C231.455 72.828 230.753 72.594 230.363 72.126C229.895 71.658 229.739 70.956 229.739 70.02V47.79H226.229V70.02C226.229 70.956 225.995 71.658 225.605 72.126C225.137 72.594 224.435 72.828 223.421 72.828H217.571C216.479 72.828 215.777 72.594 215.387 72.126C214.919 71.658 214.763 70.956 214.763 70.02V10.272C214.763 9.336 214.919 8.634 215.387 8.166C215.777 7.698 216.479 7.464 217.571 7.464H223.421C224.435 7.464 225.137 7.698 225.605 8.166C225.995 8.634 226.229 9.336 226.229 10.272V34.92H229.739V10.272C229.739 9.336 229.895 8.634 230.363 8.166C230.753 7.698 231.455 7.464 232.547 7.464H238.397C239.411 7.464 240.113 7.698 240.581 8.166C240.971 8.634 241.205 9.336 241.205 10.272V70.02C241.205 70.956 240.971 71.658 240.581 72.126C240.113 72.594 239.411 72.828 238.397 72.828H232.547ZM202.595 16.434V40.848C202.595 42.33 202.829 43.734 203.297 45.06C203.765 46.464 204.389 47.79 205.169 48.96C205.949 50.208 206.807 51.3 207.821 52.314C208.757 53.406 209.849 54.264 210.941 55.044C211.331 55.356 211.721 55.746 212.033 56.214C212.267 56.76 212.423 57.384 212.423 58.008V69.006C212.423 69.786 212.189 70.254 211.877 70.41C211.487 70.488 211.019 70.41 210.551 70.176C207.977 68.694 205.403 66.744 202.907 64.326C200.333 61.83 198.071 59.256 196.043 56.448C193.937 59.256 191.675 61.908 189.179 64.326C186.683 66.744 184.109 68.694 181.613 70.176C181.067 70.41 180.599 70.488 180.287 70.41C179.897 70.254 179.741 69.786 179.741 69.006V58.008C179.741 57.384 179.897 56.76 180.209 56.214C180.443 55.746 180.755 55.356 181.223 55.044C182.315 54.264 183.329 53.406 184.343 52.314C185.279 51.3 186.215 50.208 186.995 48.96C187.775 47.79 188.399 46.464 188.867 45.06C189.335 43.734 189.569 42.33 189.569 40.848V16.434H182.861C181.925 16.434 181.223 16.122 180.755 15.42C180.287 14.796 180.053 13.938 180.053 12.846V10.272C180.053 9.258 180.287 8.556 180.755 8.088C181.223 7.698 181.925 7.464 182.861 7.464H209.147C210.083 7.464 210.785 7.698 211.253 8.088C211.721 8.556 211.955 9.258 211.955 10.272V13.626C211.955 14.718 211.721 15.42 211.253 15.81C210.785 16.278 210.083 16.434 209.147 16.434H202.595ZM307.695 68.46C307.695 69.396 307.461 70.098 307.071 70.566C306.603 71.034 305.901 71.268 304.887 71.268H273.219C272.127 71.268 271.425 71.034 271.035 70.566C270.567 70.098 270.411 69.396 270.411 68.46V10.272C270.411 9.336 270.567 8.634 271.035 8.166C271.425 7.698 272.127 7.464 273.219 7.464H280.863C281.877 7.464 282.579 7.698 283.047 8.166C283.437 8.634 283.671 9.336 283.671 10.272V62.298H304.887C305.901 62.298 306.603 62.532 307.071 63C307.461 63.468 307.695 64.17 307.695 65.106V68.46ZM316.431 72.828C315.339 72.828 314.637 72.594 314.247 72.126C313.779 71.658 313.623 70.956 313.623 70.02V10.272C313.623 9.336 313.779 8.634 314.247 8.166C314.637 7.698 315.339 7.464 316.431 7.464H324.075C325.089 7.464 325.791 7.698 326.259 8.166C326.649 8.634 326.883 9.336 326.883 10.272V34.92H331.329C332.265 34.92 332.967 35.154 333.435 35.544C333.903 36.012 334.137 36.714 334.137 37.728V44.982C334.137 46.074 333.903 46.776 333.435 47.166C332.967 47.634 332.265 47.79 331.329 47.79H326.883V70.02C326.883 70.956 326.649 71.658 326.259 72.126C325.791 72.594 325.089 72.828 324.075 72.828H316.431ZM338.28 51.222C338.28 50.286 338.436 49.584 338.904 49.116C339.294 48.648 339.996 48.414 341.088 48.414H395.064C396.078 48.414 396.78 48.648 397.248 49.116C397.638 49.584 397.872 50.286 397.872 51.222V70.02C397.872 70.956 397.638 71.658 397.248 72.126C396.78 72.594 396.078 72.828 395.064 72.828H341.088C339.996 72.828 339.294 72.594 338.904 72.126C338.436 71.658 338.28 70.956 338.28 70.02V51.222ZM364.02 21.114C364.41 22.206 365.034 23.22 365.814 24.078C366.516 25.014 367.374 25.872 368.31 26.652C369.246 27.432 370.182 28.134 371.274 28.758C372.21 29.382 373.224 29.928 374.16 30.318C374.628 30.63 375.018 31.02 375.33 31.488C375.486 32.034 375.642 32.658 375.642 33.282V40.38C375.642 41.16 375.486 41.628 375.174 41.706C374.784 41.862 374.316 41.784 373.77 41.55C372.288 41.082 370.806 40.458 369.246 39.678C367.686 39.054 366.126 38.274 364.722 37.338C363.162 36.48 361.758 35.544 360.432 34.452C359.028 33.516 357.858 32.424 356.922 31.176C355.83 32.424 354.66 33.516 353.412 34.53C352.008 35.622 350.604 36.558 349.2 37.338C347.64 38.274 346.158 39.054 344.676 39.678C343.116 40.458 341.556 41.082 340.152 41.55C339.528 41.784 339.138 41.862 338.826 41.706C338.436 41.628 338.28 41.16 338.28 40.38V33.282C338.28 32.658 338.358 32.034 338.67 31.488C338.826 31.02 339.216 30.63 339.762 30.318C340.698 29.928 341.634 29.382 342.726 28.758C343.662 28.134 344.676 27.432 345.612 26.652C346.47 25.872 347.328 25.014 348.108 24.078C348.81 23.22 349.356 22.206 349.824 21.114H340.308C339.372 21.114 338.67 20.958 338.202 20.49C337.734 20.1 337.5 19.398 337.5 18.306V14.952C337.5 13.938 337.734 13.236 338.202 12.768C338.67 12.378 339.372 12.144 340.308 12.144H350.448V10.272C350.448 9.336 350.604 8.634 351.072 8.166C351.462 7.698 352.164 7.464 353.256 7.464H360.666C361.68 7.464 362.382 7.698 362.85 8.166C363.24 8.634 363.474 9.336 363.474 10.272V12.144H373.614C374.55 12.144 375.252 12.378 375.72 12.768C376.188 13.236 376.422 13.938 376.422 14.952V18.306C376.422 19.398 376.188 20.1 375.72 20.49C375.252 20.958 374.55 21.114 373.614 21.114H364.02ZM387.42 42.018C386.328 42.018 385.626 41.784 385.236 41.316C384.768 40.848 384.612 40.146 384.612 39.21V10.272C384.612 9.336 384.768 8.634 385.236 8.166C385.626 7.698 386.328 7.464 387.42 7.464H395.064C396.078 7.464 396.78 7.698 397.248 8.166C397.638 8.634 397.872 9.336 397.872 10.272V39.21C397.872 40.146 397.638 40.848 397.248 41.316C396.78 41.784 396.078 42.018 395.064 42.018H387.42ZM351.54 63.78H384.612V57.462H351.54V63.78ZM406.15 10.272C406.15 9.336 406.306 8.634 406.774 8.166C407.164 7.698 407.866 7.464 408.958 7.464H416.134C417.148 7.464 417.85 7.698 418.318 8.166C418.708 8.634 418.942 9.336 418.942 10.272V16.746H428.77V10.272C428.77 9.336 428.926 8.634 429.394 8.166C429.784 7.698 430.486 7.464 431.578 7.464H438.676C439.69 7.464 440.392 7.698 440.86 8.166C441.25 8.634 441.484 9.336 441.484 10.272V39.21C441.484 40.146 441.25 40.848 440.86 41.316C440.392 41.784 439.69 42.018 438.676 42.018H408.958C407.866 42.018 407.164 41.784 406.774 41.316C406.306 40.848 406.15 40.146 406.15 39.21V10.272ZM464.962 70.02C464.962 70.956 464.728 71.658 464.338 72.126C463.87 72.594 463.168 72.828 462.154 72.828H408.958C407.866 72.828 407.164 72.594 406.774 72.126C406.306 71.658 406.15 70.956 406.15 70.02V51.534C406.15 50.598 406.306 49.896 406.774 49.428C407.164 48.96 407.866 48.726 408.958 48.726H416.602C417.616 48.726 418.318 48.96 418.786 49.428C419.176 49.896 419.41 50.598 419.41 51.534V63.78H462.154C463.168 63.78 463.87 64.014 464.338 64.482C464.728 64.95 464.962 65.652 464.962 66.588V70.02ZM452.17 49.818C451.078 49.818 450.376 49.584 449.986 49.116C449.518 48.648 449.362 47.946 449.362 47.01V10.272C449.362 9.336 449.518 8.634 449.986 8.166C450.376 7.698 451.078 7.464 452.17 7.464H459.814C460.828 7.464 461.53 7.698 461.998 8.166C462.388 8.634 462.622 9.336 462.622 10.272V23.376H466.288C467.224 23.376 467.926 23.61 468.394 24C468.862 24.468 469.096 25.17 469.096 26.184V29.616C469.096 30.708 468.862 31.41 468.394 31.8C467.926 32.268 467.224 32.424 466.288 32.424H462.622V47.01C462.622 47.946 462.388 48.648 461.998 49.116C461.53 49.584 460.828 49.818 459.814 49.818H452.17ZM428.77 32.97V25.716H418.942V32.97H428.77Z" fill="#543824"/>
<path d="M47.1192 72C40.4122 68.4413 32.8041 66.5677 25.0596 66.5677C17.315 66.5677 9.70696 68.4413 3 72V13.4323C9.70696 9.87352 17.315 8 25.0596 8C32.8041 8 40.4122 9.87352 47.1192 13.4323M47.1192 72C53.8261 68.4413 61.4342 66.5677 69.1787 66.5677C76.9233 66.5677 84.5313 68.4413 91.2383 72V13.4323C84.5313 9.87352 76.9233 8 69.1787 8C61.4342 8 53.8261 9.87352 47.1192 13.4323M47.1192 72V13.4323" stroke="#543824" stroke-width="5" stroke-linecap="round" stroke-linejoin="round"/>
<path d="M26.6883 56.2762L58.1232 47.4279L68.6644 20.8831L37.1823 29.7314L26.6883 56.2762Z" fill="#543824"/>
<ellipse cx="47.6764" cy="39.4227" rx="4.19748" ry="3.37066" fill="white"/>
</svg>
