<svg width="31" height="29" viewBox="0 0 31 29" fill="none" xmlns="http://www.w3.org/2000/svg">
<path d="M23.25 22.7891H22.2683C21.235 22.7891 20.2533 23.1637 19.53 23.8403L17.3213 25.8824C16.3138 26.8128 14.6733 26.8128 13.6658 25.8824L11.4571 23.8403C10.7337 23.1637 9.73917 22.7891 8.71875 22.7891H7.75C5.60583 22.7891 3.875 21.1821 3.875 19.2004V6.01743C3.875 4.03576 5.60583 2.42871 7.75 2.42871H23.25C25.3942 2.42871 27.125 4.03576 27.125 6.01743V19.2004C27.125 21.17 25.3942 22.7891 23.25 22.7891Z" stroke="#563C0A" stroke-width="1.5" stroke-miterlimit="10" stroke-linecap="round" stroke-linejoin="round"/>
<path d="M15.2633 7.08575C15.4249 6.56126 16.1288 6.56126 16.2904 7.08575L17.2924 10.3365C17.3647 10.5711 17.572 10.7299 17.806 10.7299H21.0483C21.5714 10.7299 21.7889 11.4356 21.3657 11.7598L18.7426 13.7689C18.5533 13.9138 18.4741 14.1708 18.5464 14.4053L19.5484 17.6561C19.71 18.1806 19.1406 18.6168 18.7174 18.2926L16.0943 16.2835C15.905 16.1386 15.6487 16.1386 15.4594 16.2835L12.8363 18.2926C12.4131 18.6168 11.8437 18.1806 12.0053 17.6561L13.0073 14.4053C13.0796 14.1708 13.0004 13.9138 12.8111 13.7689L10.188 11.7598C9.76477 11.4356 9.98228 10.7299 10.5054 10.7299H13.7477C13.9817 10.7299 14.189 10.5711 14.2613 10.3365L15.2633 7.08575Z" fill="#F7C71B"/>
</svg>
