<svg width="26" height="25" viewBox="0 0 26 25" fill="none" xmlns="http://www.w3.org/2000/svg">
<path d="M12.1838 1.04245C12.533 -0.0323772 14.0536 -0.0323786 14.4028 1.04245L16.5673 7.70415C16.7235 8.18483 17.1715 8.51027 17.6769 8.51027H24.6814C25.8115 8.51027 26.2814 9.95644 25.3671 10.6207L19.7003 14.7379C19.2915 15.0349 19.1204 15.5615 19.2765 16.0422L21.4411 22.7039C21.7903 23.7787 20.5601 24.6725 19.6458 24.0082L13.979 19.8911C13.5701 19.594 13.0165 19.594 12.6076 19.8911L6.94078 24.0082C6.02648 24.6725 4.7963 23.7787 5.14553 22.7039L7.31005 16.0422C7.46623 15.5615 7.29514 15.0349 6.88625 14.7379L1.21946 10.6207C0.305165 9.95644 0.775051 8.51027 1.90519 8.51027H8.90972C9.41513 8.51027 9.86306 8.18483 10.0192 7.70415L12.1838 1.04245Z" fill="#F7C71B"/>
</svg>
