<svg width="30" height="30" viewBox="0 0 30 30" fill="none" xmlns="http://www.w3.org/2000/svg">
<circle cx="15" cy="15" r="14.75" fill="white" stroke="#B7B7B7" stroke-width="0.5"/>
<path d="M18.4321 11.1135C18.4321 13.2099 16.8227 14.8863 14.8639 14.8863C12.9052 14.8863 11.2958 13.2099 11.2958 11.1135C11.2958 9.01724 12.9052 7.34082 14.8639 7.34082C16.8227 7.34082 18.4321 9.01724 18.4321 11.1135ZM14.8639 16.8948C15.6588 16.8948 16.4143 16.7126 17.0951 16.392H17.5367C19.5998 16.392 21.2958 18.1595 21.2958 20.3658V21.6732C21.2958 22.3804 20.7542 22.9317 20.1139 22.9317H9.61395C8.97367 22.9317 8.43213 22.3804 8.43213 21.6732V20.3658C8.43213 18.1595 10.1281 16.392 12.1912 16.392H12.633C13.3161 16.7124 14.0688 16.8948 14.8639 16.8948Z" fill="#563C0A" stroke="#B7B7B7" stroke-width="0.5"/>
</svg>
