<svg width="26" height="26" viewBox="0 0 26 26" fill="none" xmlns="http://www.w3.org/2000/svg">
<path d="M11.9167 2.1665H9.75008C4.33341 2.1665 2.16675 4.33317 2.16675 9.74984V16.2498C2.16675 21.6665 4.33341 23.8332 9.75008 23.8332H16.2501C21.6667 23.8332 23.8334 21.6665 23.8334 16.2498V14.0832" stroke="#563C0A" stroke-width="1.5" stroke-linecap="round" stroke-linejoin="round"/>
<path d="M17.3768 3.2717L8.84011 11.8084C8.51511 12.1334 8.19011 12.7725 8.12511 13.2384L7.65928 16.4992C7.48595 17.68 8.32011 18.5034 9.50095 18.3409L12.7618 17.875C13.2168 17.81 13.8559 17.485 14.1918 17.16L22.7284 8.62336C24.2018 7.15003 24.8951 5.43836 22.7284 3.2717C20.5618 1.10503 18.8501 1.79836 17.3768 3.2717Z" stroke="#563C0A" stroke-width="1.5" stroke-miterlimit="10" stroke-linecap="round" stroke-linejoin="round"/>
<path d="M16.1526 4.49561C16.8784 7.08477 18.9043 9.11061 21.5043 9.84727" stroke="#563C0A" stroke-width="1.5" stroke-miterlimit="10" stroke-linecap="round" stroke-linejoin="round"/>
</svg>
