<svg width="38" height="51" viewBox="0 0 38 51" fill="none" xmlns="http://www.w3.org/2000/svg">
<path fill-rule="evenodd" clip-rule="evenodd" d="M19 0.619019C29.4934 0.619019 38 9.12561 38 19.619C38 20.8999 37.8733 22.1511 37.6316 23.3609C35.9547 35.9981 19.0998 50.3809 19.0998 50.3809C19.0998 50.3809 4.75624 38.141 1.21651 26.323C0.43022 24.2382 0 21.9789 0 19.619C0 9.12561 8.50659 0.619019 19 0.619019Z" fill="#117A2E"/>
<path d="M12.4269 17C12.7301 13.6361 15.5572 11 19 11C22.4428 11 25.2699 13.6361 25.5731 17H25.6C28.5824 17 31 19.4176 31 22.4C31 25.3824 28.5824 27.8 25.6 27.8H12.4C9.41766 27.8 7 25.3824 7 22.4C7 19.4176 9.41766 17 12.4 17H12.4269Z" fill="#117A2E" stroke="white" stroke-linecap="round" stroke-linejoin="round"/>
<path d="M19 25.4L22 22.4Z" fill="#117A2E"/>
<path d="M19 25.4L22 22.4" stroke="white" stroke-linecap="round" stroke-linejoin="round"/>
<path d="M18.9999 23.6L15.3999 20Z" fill="#117A2E"/>
<path d="M18.9999 23.6L15.3999 20" stroke="white" stroke-linecap="round" stroke-linejoin="round"/>
<path d="M19 34.9999V19.3999Z" fill="#117A2E"/>
<path d="M19 34.9999V19.3999" stroke="white" stroke-linecap="round" stroke-linejoin="round"/>
</svg>
